<?xml version="1.0" encoding="utf-8"?>
<!-- Generator: Adobe Illustrator 23.0.2, SVG Export Plug-In . SVG Version: 6.00 Build 0)  -->
<svg version="1.1" id="Capa_1" xmlns="http://www.w3.org/2000/svg" xmlns:xlink="http://www.w3.org/1999/xlink" x="0px" y="0px"
	 viewBox="0 0 1200 1200" style="enable-background:new 0 0 1200 1200;" xml:space="preserve">
<style type="text/css">
	.st0{fill:none;
	stroke:#D7A700;
	stroke-dasharray: 1700;
	stroke-dashoffset: 0;
	stroke-miterlimit: 10;
			-webkit-animation: animacion 10s forwards;
			-moz-animation: animacion 10s forwards;
			-o-animation: animacion 10s forwards;
			animation: animacion 10s forwards;
	}
	.st1{fill:transparent;
			-webkit-animation: lazo 5s forwards 7s;
			-moz-animation: lazo 5s forwards 7s;
			-o-animation: lazo 5s forwards 7s;
			animation: lazo 5s forwards 7s;
	}
	.st2{fill:transparent;
			-webkit-animation: g1 5s forwards 6s;
			-moz-animation: g1 5s forwards 6s;
			-o-animation: g1 5s forwards 6s;
			animation: g1 5s forwards 6s;
	}
	.st3{fill:transparent;
			-webkit-animation: g2 5s forwards 6s;
			-moz-animation: g2 5s forwards 6s;
			-o-animation: g2 5s forwards 6s;
			animation: g2 5s forwards 6s;
	}
	.st4{fill:transparent;
			-webkit-animation: g3 5s forwards 7s;
			-moz-animation: g3 5s forwards 7s;
			-o-animation: g3 5s forwards 7s;
			animation: g3 5s forwards 7s;
	}
	.st5{fill:transparent;
			-webkit-animation: creacion 5s forwards 6s;
			-moz-animation: creacion 5s forwards 6s;
			-o-animation: creacion 5s forwards 6s;
			animation: creacion 5s forwards 6s;
	}
	.st6{fill:transparent;
			-webkit-animation: star 5s forwards 9s;
			-moz-animation: star 5s forwards 9s;
			-o-animation: star 5s forwards 9s;
			animation: star 5s forwards 9s;
	}
	.st7{fill:transparent;
			-webkit-animation: carly 5s forwards 5s;
			-moz-animation: carly 5s forwards 5s;
			-o-animation: carly 5s forwards 5s;
			animation: carly 5s forwards 5s;
	}
	.st8{fill:transparent;
			-webkit-animation: party 5s forwards 8s;
			-moz-animation: party 5s forwards 8s;
			-o-animation: party 5s forwards 8s;
			animation: party 5s forwards 8s;
	}

	@-webkit-keyframes animacion {
			0% {
				stroke-dashoffset: 1700;
			}
			90% {
				stroke: #D7A700;
			}

			100% {
				stroke-dashoffset: 0;
				stroke: transparent;
			}
		}

		@-keyframes animacion {
			0% {
				stroke-dashoffset: 1700;
			}
			90% {
				stroke: #D7A700;
			}

			100% {
				stroke-dashoffset: 0;
				stroke: transparent;
			}
		}

		@-webkit-keyframes carly {
			from {
				fill: transparent;
			}

			to {
				fill: #000;
			}
		}

		@-keyframes carly {
			from {
				fill: transparent;
			}

			to {
				fill: #000;
			}
		}
		@-webkit-keyframes creacion {
			from {
				fill: transparent;
			}

			to {
				fill: url(#creations_1_);
			}
		}

		@-keyframes creacion {
			from {
				fill: transparent;
			}

			to {
				fill: url(#creations_1_);
			}
		}
		@-webkit-keyframes lazo {
			from {
				fill: transparent;
			}

			to {
				fill: #FFB500;
			}
		}

		@-keyframes lazo {
			from {
				fill: transparent;
			}

			to {
				fill: #FFB500;
			}
		}
		@-webkit-keyframes g1 {
			from {
				fill: transparent;
			}

			to {
				fill: #FF6A27;
			}
		}

		@-keyframes g1 {
			from {
				fill: transparent;
			}

			to {
				fill: #FF6A27;
			}
		}
		@-webkit-keyframes g2 {
			from {
				fill: transparent;
			}

			to {
				fill: #FF3A00;
			}
		}

		@-keyframes g2 {
			from {
				fill: transparent;
			}

			to {
				fill: #FF3A00;
			}
		}
		@-webkit-keyframes g3 {
			from {
				fill: transparent;
			}

			to {
				fill: #CF2100;
			}
		}

		@-keyframes g3 {
			from {
				fill: transparent;
			}

			to {
				fill: #CF2100;
			}
		}
		@-webkit-keyframes party {
			from {
				fill: transparent;
			}

			to {
				fill: #000;
			}
		}

		@-keyframes party {
			from {
				fill: transparent;
			}

			to {
				fill: #000;
			}
		}
		@-webkit-keyframes star {
			from {
				fill: transparent;
			}

			to {
				fill: #D7A700;
			}
		}

		@-keyframes star {
			from {
				fill: transparent;
			}

			to {
				fill: #D7A700;
			}
		}
</style>
<path id="CONTORNO" class="st0" d="M824.9,532.5c0.1-1,0.2-2,0.3-3c0,0,0,0,0,0h0c0.3-2.9,0.4-5.9,0.4-9
	c-0.2-36.2-37.5-74.9-84.9-55c-41.6,17.5-50.3,62.4-46.1,98.9c0,0,0,0,0,0c0.1,0.8,0.2,1.6,0.3,2.4c0,0.3,0.1,0.6,0.1,0.9
	c0.1,0.6,0.2,1.2,0.3,1.8c0,0.3,0.1,0.5,0.1,0.8c0.1,0.8,0.3,1.6,0.4,2.3c0.1,0.3,0.1,0.6,0.2,0.9c0.1,0.6,0.2,1.1,0.3,1.7
	c0.1,0.3,0.1,0.6,0.2,0.9c0.2,0.8,0.3,1.5,0.5,2.2c0.1,0.3,0.1,0.5,0.2,0.8c0.1,0.5,0.2,1.1,0.4,1.6c0.1,0.3,0.2,0.6,0.2,1
	c0.1,0.5,0.3,1.1,0.4,1.6c0.1,0.4,0.2,0.7,0.3,1.1c0.1,0.6,0.3,1.1,0.5,1.7c0.1,0.3,0.2,0.6,0.3,1c0.1,0.4,0.2,0.8,0.4,1.3
	c0.1,0.3,0.2,0.6,0.3,0.9c0.2,0.6,0.4,1.2,0.6,1.8c0.1,0.3,0.2,0.7,0.3,1c0.1,0.3,0.2,0.7,0.4,1c0.1,0.3,0.2,0.7,0.4,1
	c0.1,0.4,0.3,0.8,0.4,1.2c0.2,0.5,0.4,1,0.6,1.5c0.1,0.3,0.2,0.6,0.3,0.8c0.1,0.3,0.3,0.7,0.4,1c0.1,0.2,0.2,0.5,0.3,0.7
	c0.3,0.6,0.5,1.2,0.8,1.8c0.1,0.2,0.2,0.4,0.3,0.6c0.2,0.3,0.3,0.7,0.5,1c0.1,0.2,0.2,0.4,0.3,0.5c0.6,1.1,1.1,2.2,1.7,3.2
	c0.1,0.1,0.2,0.3,0.2,0.4c0.6,1,1.2,2,1.8,2.9c0.1,0.1,0.1,0.2,0.2,0.3c0.2,0.3,0.4,0.6,0.6,0.8c0,0.1,0.1,0.1,0.1,0.2
	c0.4,0.5,0.8,1,1.2,1.5c0,0.1,0.1,0.1,0.1,0.2c0.2,0.2,0.4,0.5,0.6,0.7c0,0,0,0,0.1,0.1c-5.8,3.1-14.5,7.9-14.7,8.5
	c0.1,0,0.1,0,0.2,0c-0.1,0.1-0.2,0.3-0.3,0.4c-1.4,2.6,3,7.6,9.8,11.1c6.8,3.5,13.3,4.2,14.7,1.6c0.3-0.5,0.3-1.1,0.1-1.8
	c0.2-2.3-0.1-6.4,0-11c0.1,0.1,0.1,0.1,0.2,0.2c2.6,2.5,5.8,7.6,7.5,10.7c7.2,13.3,29.3,90-30.8,97.3c-8.9,1.1-17.8,1.7-26.6,0.2
	c-9.5-1.6-18.4-5.2-26.9-9.7c-19.2-10.3-37.2-25.3-59.6-27.6c-5.7-0.6-11.5-0.2-17,0.9c-3.2-3.3-6.8-6.1-10.6-8.3
	c-19.2-11.2-42.6-9.3-63.1-3.5c-10.7,3-21,7.1-31.4,11c-11.4,4.3-22.7,8.9-33.6,14.1c-1.5,0.7-0.8,3,0.9,2.5
	c5.6-1.5,11.1-3.2,16.6-5.1c10.8-3.8,21.5-7.7,32.3-11.5c9.8-3.5,19.8-6.7,30.2-8.4c17.8-2.9,38-1.1,52,11l-0.1,0.1
	c-9.5,3.3-18.1,9-24.6,16.7c-5.8,6.8-10.4,15.3-10.4,24.4c0.1,10.4,8.1,18,17.9,20c16.7,3.3,32.9-10.3,36.2-26.2
	c2.4-11.3-1.2-22.7-8-31.8c5.6-0.8,11.2-0.6,16.8,0.5c10.4,2,19.9,7,28.9,12.3c9.4,5.5,18.4,11.5,28.1,16.3c8.2,4,16.8,7,25.9,8.3
	c17.3,2.6,36.1,0.5,50.6-9.6c41.9-29.4,9.2-101.2,2.8-108.6c1.9,0,4-0.1,6.1-0.3c0,0,0,0,0,0c0.5-0.1,1.1-0.1,1.6-0.2c0,0,0,0,0.1,0
	c4.5-0.6,9.4-1.6,14.6-3.1c0,0,0,0,0,0c0.6-0.2,1.3-0.4,1.9-0.6c0,0,0.1,0,0.1,0c0.6-0.2,1.3-0.4,2-0.6c0,0,0,0,0,0
	c5.4-1.8,10.9-4.1,16.5-6.9c0,0,0,0,0,0C794.7,593.4,820.4,569.2,824.9,532.5C824.9,532.6,824.9,532.6,824.9,532.5z M575.2,720.8
	c0.8,7.8-1.5,15.3-6.6,21.3c-4.8,5.5-11.7,9.4-19.1,9.5c-8.4,0.1-16.6-5.4-17.1-14.2c-0.4-8.4,4.7-16.4,10.1-22.4
	c5.8-6.3,13.2-11,21.3-13.7c0.8-0.3,1.6-0.5,2.4-0.7l0.1,0C571.1,706.3,574.5,713.4,575.2,720.8z M722,618.1
	C722,618,722,618,722,618.1C722,618,722,618,722,618.1C722,618,722,618,722,618.1z M716.8,526.4c-9.7-1.1-7.9-16.2,1.8-15
	C728.2,512.5,726.4,527.5,716.8,526.4z M779.8,491.7c-15.2-7.1-30.9-0.2-42.1,10.7c-7.7,7.5-19.1-4.7-13.1-12.8
	c13.8-18.6,41-21.3,60.2-10.4C792.2,483.3,787.8,495.4,779.8,491.7z M379,454.6h21l4.2,9.7h8.2l-19-42h-7.7l-18.9,42h8L379,454.6z
	 M389.5,430.1l7.9,18.4h-15.8L389.5,430.1z M473.5,452.1h9.5c0.5,0,1.1,0,1.6-0.1l8.6,12.3h8.4l-9.7-13.8c5.7-2.2,8.9-6.9,8.9-13.3
	c0-9.3-6.8-14.9-17.9-14.9h-17.3v42h7.8V452.1z M473.5,428.9h9.1c6.8,0,10.4,3.1,10.4,8.3s-3.5,8.4-10.4,8.4h-9.1V428.9z
	 M649.3,464.3h-7.8v-42h7.8V464.3z M882.5,449.6L866,422.3h8.3l12.3,20.5l12.4-20.5h7.7l-16.4,27.2v14.8h-7.8V449.6z M822.4,464.3
	h-29.8v-42h7.8v35.4h22V464.3z M738.4,464.3h-29.8v-42h7.8v35.4h22V464.3z M279.1,443.3c0-12.5,9.6-21.6,22.5-21.6
	c6.8,0,12.7,2.5,16.6,7l-5,4.7c-3.1-3.3-6.8-4.9-11.2-4.9c-8.7,0-15,6.1-15,14.8s6.3,14.8,15,14.8c4.4,0,8.2-1.6,11.2-5l5,4.8
	c-3.9,4.6-9.8,7-16.7,7C288.7,464.9,279.1,455.9,279.1,443.3z M973.9,602.4c-1.4-2.8-7.6-3.8-23.5-2.6c-12.8,1.6-23.4,1.4-23.4-0.1
	c-0.4-1,0.8-6.3,3-12c3.7-11.5,17-20.9,28-21.6c9.1-0.6,10.3-5.7,2.1-9.7c-17.9-10.1-43.8,11.7-46.4,38.4c-2.8,0.5-6.6,1.9-11.8,4.1
	c-9.1,4.5-16.8,6.1-17.8,4.4c-1-1.9,1.8-9,5.2-15.2c5.1-9.5,5.7-14.1,4.2-20c-4.2-12.4-12.9-12.5-33.8-0.4L841.5,579l13.3-18.3
	c13.3-18.9,13.6-22.8,2-26.2c-10.3-3-52.1,59.9-49.2,74.2c2.7,12.6,11.3,10.5,29.6-6.4c9.6-9,24-20,31.7-24.7l13.6-8.8l-4.9,11.3
	c-5.8,11.7-5.8,11.7-7.2,19.3c-1.7,5.7,11.7,16.8,19.9,16c3.2,0.1,11.8-2.9,18.7-7.2c0.7-0.4,1.4-0.8,2-1.2c-2.4,2.2-7.1,4.3-16,7.9
	c-20.8,7.3-31.4,15.5-40.5,30.7c-4,6.5-4.8,10.3-2.7,15.2c7.4,16.7,36.2,15.8,55.1-1.4c9.1-8.6,11.8-13.3,16.1-28.7l4.8-18.5
	l24.6-2.5C969.6,607.2,976,605.6,973.9,602.4z M882.3,657.9c-13.8,5.9-23.1,4.8-20-3c3.6-9.1,21.3-23.4,34.8-28.6
	c11.8-5.3,12.5-5,12.7,0.8C909.3,636.6,896,651.8,882.3,657.9z M651.2,469.7c2.1-0.7,4.1-0.5,5.9,0.8c1.5,1.1,2.4,2.6,2.6,4.4
	c0.2,1.9-0.2,4.1-1.2,6.7c2.1-1.9,4.1-3,5.9-3.4c1.9-0.4,3.6-0.1,5.1,1c1.8,1.3,2.7,3,2.7,5.3c0,2.3-0.8,4.6-2.6,7.1
	c-1.5,2.2-3.1,3.6-4.8,4.4c-1.7,0.8-4,1-7,0.8l-0.4,0c-4.9-0.4-8.7,0.3-11.2,2.3c1-3.1,0.5-6.8-1.5-11.3c-0.1-0.2-0.1-0.3-0.2-0.4
	c-1.3-2.8-1.8-5.1-1.7-6.9c0.2-1.8,1-3.8,2.6-6C647.1,472.1,649,470.5,651.2,469.7z M468.5,556.9c1.1,5.3,2.9,8.3,5.8,9.8
	c8.8,3.8,11.8,2.8,21.3-9.6c10.4-12.3,14-14.1,14.6-7.3c0.6,6.7,10.4,12.8,20.1,11.9c5.5-0.5,14.3-7.1,21.3-14.4
	c-1.4,6-2.5,12-3.4,17.7c-5.5,35-5.5,36.5,5.4,46.3c4.7,5.3,11.5,8.8,15.3,8.8c7.7-0.1,21.7-17.8,39.4-48.5c0.7-1.2,1.4-2.4,2-3.5
	c0.3,4.6,1.3,8.2,2.9,10c5.1,5.4,23.4,5.4,34.2-0.8c12.4-7.1,46.7-45.8,44.7-49.7c-1.4-2.4-13.3,6.9-29.9,21.6
	c-15,13.8-29.8,24.5-32.1,24.4c-7.6-0.3-3-20.6,8.8-44.4c9.8-18.6,9.8-18.6,3.8-21.9c-8.1-4.9-14.4-0.6-23.5,18.8
	c-2.8,5.1-5,11.4-6.6,17.9c-2.8,3.7-6.1,8.7-10,15c-7.4,13.8-19.2,30.7-25.9,38.4c-10.3,12.3-12.6,13.9-15,9.3
	c-5.4-10.5,9.3-79,23.9-109l5.1-11.4l21.1-0.4c12.2-0.2,21.2-1.9,21.2-3.4c-0.1-3.8-8.4-5.8-22.9-5.6c-7.5,0.1-13.6-1.3-13.7-2.8
	s4.4-9.3,10.4-17.6c8.8-13.9,9.5-16.1,4.8-19.8c-6.1-5.2-12.9,0.2-23.8,19.4c-0.4,0.6-0.7,1.2-1,1.8h-21.6v-35.4h-7.8v42h25.6
	c-8.9,15.3-11.5,15.6-30.4,17.9c-10.7,1-20.4,3.4-21.2,5c-2.2,3.9,10.7,5.9,25.9,3.4c12.1-1.7,12.8-1.8,10.6,3.6
	c-4.5,11.6-8.5,23.3-11.8,34.7c-2.5,1.5-5.7,4.7-10.6,10c-6.1,7.5-14.8,13.5-17.8,13.7c-5.2,0.5-6.1-1-5.8-15.5
	c0-9.1,1.2-19.2,1.7-22.1c1.5-8.6-7.9-13.1-12.7-5.8c-1.3,2.4-7.2,3.7-12.5,4.2c-8.5,0-12,1.8-21,12.5c-5.5,6.7-8.3,11-9.4,15.7
	c-1.9,2-3.9,4.4-6.1,7.4c-17.6,23.1-43.4,33.6-46,18.6c-0.6-3.6,3.1-8.1,11.4-14.2c18.5-13.1,24.3-37.3,9.7-41.7
	c-10.5-3.5-17.8-0.7-27.2,11.7c-20.4,25.1-17.4,56.1,5.8,60.5c7.9,1.7,18.3-0.8,31.1-6.9C453.4,573.7,461.9,565.3,468.5,556.9z
	 M488.9,533.4c11.7-14.9,17.7-15.4,11.3-2.5c-2.6,5.5-8,13.6-12,18.6l-7.7,8.2l-0.6-6.7C479.5,547.1,483.4,539.1,488.9,533.4z
	 M418,543.5c2.5-8.2,12-19.8,13.9-17.8c0.9,0.6-0.5,6.1-4.1,11.4C420.5,549.1,414.4,553.3,418,543.5z M382.2,538.3
	c-2.8,0.7-10,9.7-17.2,20.9c-12.1,19.6-19.9,46.8-16.7,59.2c2.1,8.1-8.6,12.4-13.7,5.1c-2.3-2.6-6.1-14.9-9.1-26.6
	c-1.2-5.1-2.2-10.4-2.8-15.5c-5.5,14.7-14.8,33.4-21.2,40.6c-9.2,9.9-23.8,18.5-32.3,17.6c-9.8-0.5-20.9-8.5-24.1-17.1
	c-3.6-9.9-0.6-41,5.3-47.1c11.3-13.1,35.5-9.1,37.4,7.1c0.8,11.1-7.2,13.2-11.1,2.6c-1.6-4.3-3.9-8.4-5.9-9.3
	c-6.8-0.8-11.9,27-8.1,41.8c3.5,14,5.8,15.7,14.9,12.3c12.2-4.5,28.2-26.5,37.3-50.1c2.7-7.1,4.8-11.9,6.6-14.8
	c-0.2-23.6,5.8-42.5,15.2-41.8c7.3,1.3,7.5,2,5,22.3c-2.6,23.4-1.5,24.7,8.7,9.6c11.9-18.1,18.2-23.6,26.9-23.6
	C385.8,531,389.6,536.4,382.2,538.3z"/>
<path id="lazo" class="st1" d="M725.7,617.9c-2.7-2.5-6.3,1.8-3.7,4.3c2.6,2.5,5.8,7.6,7.5,10.7c7.2,13.3,29.3,90-30.8,97.3
	c-8.9,1.1-17.8,1.7-26.6,0.2c-9.5-1.6-18.4-5.2-26.9-9.7c-19.2-10.3-37.2-25.3-59.6-27.6c-5.7-0.6-11.5-0.2-17,0.9
	c-3.2-3.3-6.8-6.1-10.6-8.3c-19.2-11.2-42.6-9.3-63.1-3.5c-10.7,3-21,7.1-31.4,11c-11.4,4.3-22.7,8.9-33.6,14.1
	c-1.5,0.7-0.8,3,0.9,2.5c5.6-1.5,11.1-3.2,16.6-5.1c10.8-3.8,21.5-7.7,32.3-11.5c9.8-3.5,19.8-6.7,30.2-8.4c17.8-2.9,38-1.1,52,11
	l-0.1,0.1c-9.5,3.3-18.1,9-24.6,16.7c-5.8,6.8-10.4,15.3-10.4,24.4c0.1,10.4,8.1,18,17.9,20c16.7,3.3,32.9-10.3,36.2-26.2
	c2.4-11.3-1.2-22.7-8-31.8c5.6-0.8,11.2-0.6,16.8,0.5c10.4,2,19.9,7,28.9,12.3c9.4,5.5,18.4,11.5,28.1,16.3c8.2,4,16.8,7,25.9,8.3
	c17.3,2.6,36.1,0.5,50.6-9.6C765.8,697,731.2,623.3,725.7,617.9z M568.6,742.1c-4.8,5.5-11.7,9.4-19.1,9.5
	c-8.4,0.1-16.6-5.4-17.1-14.2c-0.4-8.4,4.7-16.4,10.1-22.4c5.8-6.3,13.2-11,21.3-13.7c0.8-0.3,1.6-0.5,2.4-0.7l0.1,0
	c4.8,5.7,8.1,12.8,8.9,20.2C576,728.6,573.7,736.2,568.6,742.1z"/>
<path id="Carlilly" class="st7" d="M279.1,443.3c0-12.5,9.6-21.6,22.5-21.6c6.8,0,12.7,2.5,16.6,7l-5,4.7c-3.1-3.3-6.8-4.9-11.2-4.9
	c-8.7,0-15,6.1-15,14.8s6.3,14.8,15,14.8c4.4,0,8.2-1.6,11.2-5l5,4.8c-3.9,4.6-9.8,7-16.7,7C288.7,464.9,279.1,455.9,279.1,443.3z
	 M400,454.6h-21l-4.1,9.7h-8l18.9-42h7.7l19,42h-8.2L400,454.6z M397.4,448.5l-7.9-18.4l-7.9,18.4H397.4z M493.2,464.3l-8.6-12.3
	c-0.5,0.1-1.1,0.1-1.6,0.1h-9.5v12.2h-7.8v-42H483c11,0,17.9,5.6,17.9,14.9c0,6.4-3.2,11-8.9,13.3l9.7,13.8H493.2z M482.6,428.9
	h-9.1v16.7h9.1c6.8,0,10.4-3.1,10.4-8.4S489.5,428.9,482.6,428.9z M557.6,422.3h7.8v35.4h22v6.6h-29.8V422.3z M641.5,422.3h7.8v42
	h-7.8V422.3z M708.7,422.3h7.8v35.4h22v6.6h-29.8V422.3z M792.6,422.3h7.8v35.4h22v6.6h-29.8V422.3z M890.3,449.5v14.8h-7.8v-14.7
	L866,422.3h8.3l12.3,20.5l12.4-20.5h7.7L890.3,449.5z"/>
<path id="Party" class="st8" d="M346.5,669.7c1.4,5.6-1.7,10-8.4,11.8l-6.4,1.6l2,7.8l-3.7,1l-6.7-25.8l10-2.6
	C340.1,661.7,345,664.1,346.5,669.7z M342.8,670.6c-1-3.7-4-5.1-8.7-3.9l-6.3,1.6l3,11.6l6.3-1.6C341.8,677,343.8,674.3,342.8,670.6
	z M373.6,674.5l-13.8,3.1l-1.4,7.1l-3.8,0.9l6-28.6l3.7-0.8l17.6,23.3l-3.9,0.9L373.6,674.5z M371.6,671.8l-8.4-11.5l-2.8,14
	L371.6,671.8z M406.6,674.8l-7.1-7c-0.5,0.1-1.1,0.3-1.6,0.4l-6.5,1.2l1.5,8l-3.7,0.7l-4.9-26.1l10.2-1.9c6.8-1.3,11.5,1.4,12.6,7.1
	c0.8,4-0.8,7.3-4.2,9.3l7.8,7.6L406.6,674.8z M403.3,657.8c-0.7-3.7-3.6-5.4-8.4-4.5l-6.4,1.2l2.2,11.8l6.4-1.2
	C401.9,664.1,404,661.5,403.3,657.8z M421.2,648.8l-9,1.4l-0.5-3.3l21.7-3.4l0.5,3.3l-9,1.4l3.6,23l-3.7,0.6L421.2,648.8z
	 M453.8,658.4l1.2,9.1l-3.7,0.5l-1.2-9.2l-12.7-15.9l4-0.5l10.2,12.8l6.7-15l3.7-0.5L453.8,658.4z M484.6,637.5l11.2-0.9
	c8.5-0.7,14.7,4.2,15.4,12.1c0.6,7.9-4.8,13.7-13.3,14.4l-11.2,0.9L484.6,637.5z M497.4,659.9c6.6-0.5,10.4-4.9,10-10.8
	c-0.5-5.9-5-9.6-11.5-9.1l-7.2,0.6l1.6,19.9L497.4,659.9z M540.7,657.3l0.2,3.3l-19.3,0.9l-1.2-26.6l18.8-0.9l0.2,3.3l-15,0.7
	l0.4,8.2l13.3-0.6l0.2,3.2l-13.3,0.6l0.4,8.6L540.7,657.3z M548.1,647.1c-0.1-7.9,5.8-13.7,13.9-13.8c4.1-0.1,7.7,1.3,10.2,4
	l-2.4,2.4c-2.1-2.1-4.6-3.1-7.5-3c-6,0.1-10.4,4.5-10.3,10.4s4.6,10.1,10.6,10c2.9-0.1,5.4-1.1,7.4-3.3l2.5,2.4
	c-2.4,2.8-5.9,4.3-10.1,4.4C554.4,660.6,548.3,654.9,548.1,647.1z M579,646.6c0.1-7.8,6.2-13.5,14.4-13.4c8.1,0.1,14,6,13.9,13.8
	c-0.1,7.8-6.2,13.5-14.3,13.4C584.8,660.3,578.9,654.4,579,646.6z M603.5,647c0.1-5.9-4.3-10.3-10.1-10.4c-6-0.1-10.4,4.2-10.5,10.1
	s4.3,10.3,10.2,10.4C598.9,657.1,603.4,652.8,603.5,647z M634.3,661.5l-5.3-8.4c-0.5,0-1.1,0-1.7,0l-6.6-0.3l-0.4,8.1l-3.8-0.2
	l1.2-26.6l10.4,0.5c6.9,0.3,10.9,4,10.7,9.8c-0.2,4.1-2.5,7-6.2,8.1l5.9,9.2L634.3,661.5z M635,644.2c0.2-3.8-2.3-6.1-7.1-6.3
	l-6.5-0.3l-0.6,12l6.5,0.3C632.2,650.1,634.8,648,635,644.2z M680.9,665.6l-3.2-3.8c-2.5,2-5.6,2.9-9.2,2.6c-5.4-0.5-9-3.7-8.6-7.7
	c0.3-3.3,2.4-5.4,7.2-7.5c-2.2-2.6-2.8-4.4-2.6-6.3c0.3-3.6,3.3-5.7,7.7-5.3c4,0.4,6.4,2.7,6.1,6.1c-0.2,2.7-2,4.5-6.3,6.4l5.9,7.1
	c0.8-1.3,1.6-2.8,2.1-4.7l2.8,1.2c-0.7,2.3-1.7,4.3-2.9,5.8l3.2,3.9L680.9,665.6z M675.8,659.4l-6.8-8.2c-3.9,1.7-5.2,3.2-5.4,5.3
	c-0.2,2.5,2,4.5,5.6,4.8C671.6,661.5,673.9,660.9,675.8,659.4z M667.9,642.9c-0.1,1.4,0.3,2.4,2.3,4.8c3.7-1.6,4.9-2.8,5.1-4.4
	c0.2-1.7-1-3-3.3-3.2C669.6,639.8,668,641,667.9,642.9z M729.3,671.4l2.7-19.2l-11.8,14.6l-1.7-0.2l-7.2-17.2l-2.7,19.1l-3.6-0.5
	l3.8-26.3l3.1,0.4l8.3,20.1l13.5-17l3.1,0.4l-3.7,26.3L729.3,671.4z M744.6,660.3c1.4-7.7,8.4-12.3,16.4-10.8
	c8,1.5,12.8,8.2,11.4,15.9c-1.4,7.7-8.4,12.3-16.3,10.8C748,674.8,743.2,668,744.6,660.3z M768.7,664.7c1.1-5.8-2.5-10.9-8.3-11.9
	c-5.9-1.1-11,2.4-12.1,8.2c-1.1,5.8,2.5,10.9,8.3,11.9C762.5,674,767.6,670.5,768.7,664.7z M796.5,684.3l-3.8-9.2
	c-0.5-0.1-1.1-0.2-1.6-0.3l-6.4-1.4l-1.8,7.9l-3.7-0.8l5.8-26l10.1,2.3c6.7,1.5,10.1,5.8,8.8,11.5c-0.9,4-3.6,6.4-7.5,6.9l4.2,10.1
	L796.5,684.3z M800.2,667.4c0.8-3.7-1.2-6.4-5.9-7.4l-6.3-1.4l-2.6,11.7l6.3,1.4C796.4,672.7,799.4,671.1,800.2,667.4z M829.1,689.1
	l-0.8,3.2l-18.7-4.9l6.7-25.7l18.2,4.7l-0.8,3.2l-14.5-3.8l-2.1,7.9l12.9,3.4l-0.8,3.1l-12.9-3.4l-2.2,8.3L829.1,689.1z"/>
<path id="G1" class="st2" d="M716.7,616.7c-21.6-8.8-48-121,24-151.2c47.4-19.9,84.7,18.8,84.9,55
	C826,596.8,738.3,625.5,716.7,616.7z M784.8,479.2c-19.2-10.8-46.4-8.1-60.2,10.4c-6,8.1,5.3,20.3,13.1,12.8
	c11.1-10.8,26.9-17.8,42.1-10.7C787.8,495.4,792.2,483.3,784.8,479.2z M718.5,511.3c-9.7-1.1-11.5,13.9-1.8,15
	C726.4,527.5,728.2,512.5,718.5,511.3z"/>
<path id="G3" class="st3" d="M721.7,634.9c-1.4,2.6-7.9,1.9-14.7-1.6c-6.8-3.5-11.1-8.4-9.8-11.1c1.4-2.6,7.9-1.9,14.7,1.6
	C718.6,627.3,723,632.3,721.7,634.9z"/>
<path id="G2" class="st4" d="M761.2,581.3c-20.9,35.3-54.6,2.9-66.6-16.8c2.6,22,9.8,40.9,17.4,48.9c-5.8,3.1-14.5,7.9-14.7,8.5
	c10,0.7,18,5.5,24.1,12.7c1-2-0.1-9.1,0.5-16.5c26.6,3.3,97.4-23.8,103.2-88.4C807.4,534.5,780.3,549.1,761.2,581.3z"/>
<radialGradient id="creations_1_" cx="755.2065" cy="542.0418" r="513.1168" gradientUnits="userSpaceOnUse">
	<stop  offset="0" style="stop-color:#FFB500"/>
	<stop  offset="0.502" style="stop-color:#FF3A00"/>
	<stop  offset="1" style="stop-color:#FF0000"/>
</radialGradient>
<path id="creations" class="st5" d="M382.2,538.3c-2.8,0.7-10,9.7-17.2,20.9c-12.1,19.6-19.9,46.8-16.7,59.2
	c2.1,8.1-8.6,12.4-13.7,5.1c-2.3-2.6-6.1-14.9-9.1-26.6c-1.2-5.1-2.2-10.4-2.8-15.5c-5.5,14.7-14.8,33.4-21.2,40.6
	c-9.2,9.9-23.8,18.5-32.3,17.6c-9.8-0.5-20.9-8.5-24.1-17.1c-3.6-9.9-0.6-41,5.3-47.1c11.3-13.1,35.5-9.1,37.4,7.1
	c0.8,11.1-7.2,13.2-11.1,2.6c-1.6-4.3-3.9-8.4-5.9-9.3c-6.8-0.8-11.9,27-8.1,41.8c3.5,14,5.8,15.7,14.9,12.3
	c12.2-4.5,28.2-26.5,37.3-50.1c2.7-7.1,4.8-11.9,6.6-14.8c-0.2-23.6,5.8-42.5,15.2-41.8c7.3,1.3,7.5,2,5,22.3
	c-2.6,23.4-1.5,24.7,8.7,9.6c11.9-18.1,18.2-23.6,26.9-23.6C385.8,531,389.6,536.4,382.2,538.3z M418,543.5
	c2.5-8.2,12-19.8,13.9-17.8c0.9,0.6-0.5,6.1-4.1,11.4C420.5,549.1,414.4,553.3,418,543.5z M500.2,530.8c-2.6,5.5-8,13.6-12,18.6
	l-7.7,8.2l-0.6-6.7c-0.3-3.8,3.6-11.8,9-17.6C500.7,518.5,506.6,518,500.2,530.8z M692.1,527.5c-1.4-2.4-13.3,6.9-29.9,21.6
	c-15,13.8-29.8,24.5-32.1,24.4c-7.6-0.3-3-20.6,8.8-44.4c9.8-18.6,9.8-18.6,3.8-21.9c-8.1-4.9-14.4-0.6-23.5,18.8
	c-2.8,5.1-5,11.4-6.6,17.9c-2.8,3.7-6.1,8.7-10,15c-7.4,13.8-19.2,30.7-25.9,38.4c-10.3,12.3-12.6,13.9-15,9.3
	c-5.4-10.5,9.3-79,23.9-109l5.1-11.4l21.1-0.4c12.2-0.2,21.2-1.9,21.2-3.4c-0.1-3.8-8.4-5.8-22.9-5.6c-7.5,0.1-13.6-1.3-13.7-2.8
	s4.4-9.3,10.4-17.6c8.8-13.9,9.5-16.1,4.8-19.8c-6.1-5.2-12.9,0.2-23.8,19.4c-13.3,23.7-13.3,23.7-35.2,26.4
	c-10.7,1-20.4,3.4-21.2,5c-2.2,3.9,10.7,5.9,25.9,3.4c12.1-1.7,12.8-1.8,10.6,3.6c-4.5,11.6-8.5,23.3-11.8,34.7
	c-2.5,1.5-5.7,4.7-10.6,10c-6.1,7.5-14.8,13.5-17.8,13.7c-5.2,0.5-6.1-1-5.8-15.5c0-9.1,1.2-19.2,1.7-22.1
	c1.5-8.6-7.9-13.1-12.7-5.8c-1.3,2.4-7.2,3.7-12.5,4.2c-8.5,0-12,1.8-21,12.5c-5.5,6.7-8.3,11-9.4,15.7c-1.9,2-3.9,4.4-6.1,7.4
	c-17.6,23.1-43.4,33.6-46,18.6c-0.6-3.6,3.1-8.1,11.4-14.2c18.5-13.1,24.3-37.3,9.7-41.7c-10.5-3.5-17.8-0.7-27.2,11.7
	c-20.4,25.1-17.4,56.1,5.8,60.5c7.9,1.7,18.3-0.8,31.1-6.9c6.5-3.2,15-11.6,21.6-20c1.1,5.3,2.9,8.3,5.8,9.8
	c8.8,3.8,11.8,2.8,21.3-9.6c10.4-12.3,14-14.1,14.6-7.3c0.6,6.7,10.4,12.8,20.1,11.9c5.5-0.5,14.3-7.1,21.3-14.4
	c-1.4,6-2.5,12-3.4,17.7c-5.5,35-5.5,36.5,5.4,46.3c4.7,5.3,11.5,8.8,15.3,8.8c7.7-0.1,21.7-17.8,39.4-48.5c0.7-1.2,1.4-2.4,2-3.5
	c0.3,4.6,1.3,8.2,2.9,10c5.1,5.4,23.4,5.4,34.2-0.8C659.9,570.1,694.1,531.4,692.1,527.5z M973.9,602.4c-1.4-2.8-7.6-3.8-23.5-2.6
	c-12.8,1.6-23.4,1.4-23.4-0.1c-0.4-1,0.8-6.3,3-12c3.7-11.5,17-20.9,28-21.6c9.1-0.6,10.3-5.7,2.1-9.7
	c-17.9-10.1-43.8,11.7-46.4,38.4c-2.8,0.5-6.6,1.9-11.8,4.1c-9.1,4.5-16.8,6.1-17.8,4.4c-1-1.9,1.8-9,5.2-15.2
	c5.1-9.5,5.7-14.1,4.2-20c-4.2-12.4-12.9-12.5-33.8-0.4L841.5,579l13.3-18.3c13.3-18.9,13.6-22.8,2-26.2
	c-10.3-3-52.1,59.9-49.2,74.2c2.7,12.6,11.3,10.5,29.6-6.4c9.6-9,24-20,31.7-24.7l13.6-8.8l-4.9,11.3c-5.8,11.7-5.8,11.7-7.2,19.3
	c-1.7,5.7,11.7,16.8,19.9,16c3.2,0.1,11.8-2.9,18.7-7.2c0.7-0.4,1.4-0.8,2-1.2c-2.4,2.2-7.1,4.3-16,7.9
	c-20.8,7.3-31.4,15.5-40.5,30.7c-4,6.5-4.8,10.3-2.7,15.2c7.4,16.7,36.2,15.8,55.1-1.4c9.1-8.6,11.8-13.3,16.1-28.7l4.8-18.5
	l24.6-2.5C969.6,607.2,976,605.6,973.9,602.4z M882.3,657.9c-13.8,5.9-23.1,4.8-20-3c3.6-9.1,21.3-23.4,34.8-28.6
	c11.8-5.3,12.5-5,12.7,0.8C909.3,636.6,896,651.8,882.3,657.9z M659.7,475c-0.2-1.9-1.1-3.4-2.6-4.4c-1.8-1.3-3.7-1.5-5.9-0.8
	c-2.1,0.7-4.1,2.3-5.8,4.8c-1.5,2.2-2.4,4.2-2.6,6c-0.2,1.8,0.4,4.1,1.7,6.9c0,0.1,0.1,0.2,0.2,0.4c2.1,4.5,2.6,8.3,1.5,11.3
	c2.5-2,6.3-2.8,11.2-2.3l0.4,0c3,0.3,5.4,0,7-0.8c1.7-0.8,3.3-2.3,4.8-4.4c1.7-2.5,2.6-4.8,2.6-7.1c0-2.3-0.9-4-2.7-5.3
	c-1.5-1.1-3.2-1.4-5.1-1c-1.9,0.4-3.8,1.5-5.9,3.4C659.5,479.1,659.9,476.9,659.7,475z"/>
<path id="estrellas" class="st6" d="M314.5,490.4l1.6,11.6l11.6,2.1l-10.6,5.1l1.6,11.7l-8.2-8.5l-10.6,5.1l5.5-10.3l-8.1-8.5
	l11.6,2.1L314.5,490.4z M442.4,367.4l-4.5,10.8l8.9,7.7l-11.7-1l-4.6,10.9l-2.7-11.5l-11.7-1l10-6.1l-2.7-11.4l8.9,7.7L442.4,367.4z
	 M615,326.6l-9.4,7.1l3.8,11.2l-9.6-6.8l-9.4,7.1l3.5-11.3l-9.6-6.8l11.7-0.2l3.5-11.2l3.8,11.1L615,326.6z M784.5,379.5l-11.7,1.2
	l-2.5,11.5l-4.8-10.8l-11.7,1.2l8.8-7.9l-4.8-10.7l10.1,5.9l8.8-7.8l-2.4,11.5L784.5,379.5z M903.4,511.1l-10.7-4.9l-8,8.7l1.3-11.7
	l-10.7-4.9l11.6-2.3l1.3-11.7l5.8,10.2l11.5-2.3l-7.9,8.7L903.4,511.1z"/>
</svg>
